<?xml version="1.0" encoding="UTF-8" standalone="no"?>
<!DOCTYPE svg PUBLIC "-//W3C//DTD SVG 1.1//EN" "http://www.w3.org/Graphics/SVG/1.1/DTD/svg11.dtd">
<svg width="100%" height="100%" viewBox="0 0 1959 823" version="1.1" xmlns="http://www.w3.org/2000/svg" xmlns:xlink="http://www.w3.org/1999/xlink" xml:space="preserve" xmlns:serif="http://www.serif.com/" style="fill-rule:evenodd;clip-rule:evenodd;stroke-linejoin:round;stroke-miterlimit:2;">
    <g transform="matrix(1,0,0,1,-1276.73,-449.502)">
        <g transform="matrix(1,0,0,1,32.1364,-166.792)">
            <g transform="matrix(750,0,0,750,1181.97,1137.05)">
                <path d="M0.471,-0.381L0.471,-0.395C0.471,-0.405 0.473,-0.412 0.477,-0.417C0.481,-0.421 0.486,-0.423 0.492,-0.423C0.498,-0.423 0.503,-0.421 0.507,-0.417C0.511,-0.412 0.513,-0.405 0.513,-0.395L0.513,-0.302C0.512,-0.292 0.51,-0.285 0.507,-0.281C0.503,-0.277 0.498,-0.274 0.492,-0.274C0.486,-0.274 0.482,-0.276 0.478,-0.28C0.474,-0.284 0.472,-0.29 0.471,-0.299C0.469,-0.322 0.454,-0.344 0.426,-0.365C0.397,-0.386 0.359,-0.396 0.311,-0.396C0.25,-0.396 0.203,-0.377 0.172,-0.339C0.14,-0.301 0.125,-0.257 0.125,-0.208C0.125,-0.155 0.142,-0.111 0.177,-0.077C0.212,-0.042 0.257,-0.025 0.312,-0.025C0.344,-0.025 0.376,-0.031 0.409,-0.042C0.442,-0.054 0.472,-0.073 0.499,-0.099C0.506,-0.106 0.512,-0.109 0.517,-0.109C0.523,-0.109 0.527,-0.107 0.531,-0.103C0.535,-0.1 0.537,-0.095 0.537,-0.089C0.537,-0.075 0.52,-0.058 0.487,-0.036C0.434,-0.001 0.375,0.016 0.31,0.016C0.244,0.016 0.19,-0.005 0.147,-0.047C0.105,-0.089 0.083,-0.143 0.083,-0.208C0.083,-0.274 0.105,-0.328 0.149,-0.372C0.192,-0.416 0.247,-0.438 0.313,-0.438C0.376,-0.438 0.429,-0.419 0.471,-0.381Z" style="fill-rule:nonzero;"/>
            </g>
            <g transform="matrix(750,0,0,750,1632.05,1137.05)">
                <path d="M0.529,-0.21C0.529,-0.148 0.507,-0.095 0.462,-0.05C0.417,-0.006 0.363,0.016 0.3,0.016C0.236,0.016 0.182,-0.006 0.138,-0.051C0.093,-0.095 0.071,-0.148 0.071,-0.21C0.071,-0.273 0.093,-0.326 0.138,-0.371C0.182,-0.415 0.236,-0.438 0.3,-0.438C0.363,-0.438 0.417,-0.415 0.462,-0.371C0.507,-0.327 0.529,-0.273 0.529,-0.21ZM0.488,-0.21C0.488,-0.262 0.469,-0.306 0.433,-0.342C0.396,-0.378 0.352,-0.396 0.3,-0.396C0.248,-0.396 0.203,-0.378 0.167,-0.342C0.13,-0.305 0.112,-0.262 0.112,-0.21C0.112,-0.16 0.13,-0.116 0.167,-0.08C0.203,-0.043 0.248,-0.025 0.3,-0.025C0.352,-0.025 0.396,-0.043 0.433,-0.079C0.469,-0.116 0.488,-0.159 0.488,-0.21Z" style="fill-rule:nonzero;"/>
            </g>
            <g transform="matrix(750,0,0,750,2082.12,1137.05)">
                <path d="M0.462,-0.338C0.508,-0.328 0.542,-0.313 0.565,-0.291C0.597,-0.261 0.612,-0.224 0.612,-0.181C0.612,-0.148 0.602,-0.117 0.581,-0.087C0.56,-0.057 0.532,-0.035 0.495,-0.021C0.459,-0.007 0.404,-0 0.329,-0L0.017,-0L0.017,-0.018L0.042,-0.018C0.069,-0.018 0.089,-0.027 0.101,-0.044C0.109,-0.056 0.112,-0.08 0.112,-0.117L0.112,-0.545C0.112,-0.586 0.108,-0.612 0.098,-0.623C0.085,-0.637 0.067,-0.644 0.042,-0.644L0.017,-0.644L0.017,-0.662L0.303,-0.662C0.356,-0.662 0.399,-0.658 0.431,-0.65C0.48,-0.639 0.517,-0.618 0.543,-0.588C0.569,-0.558 0.582,-0.524 0.582,-0.485C0.582,-0.452 0.571,-0.422 0.551,-0.396C0.531,-0.37 0.501,-0.351 0.462,-0.338ZM0.206,-0.364C0.218,-0.362 0.232,-0.36 0.247,-0.359C0.263,-0.358 0.28,-0.357 0.298,-0.357C0.346,-0.357 0.382,-0.363 0.406,-0.373C0.429,-0.383 0.448,-0.399 0.46,-0.42C0.473,-0.441 0.479,-0.464 0.479,-0.489C0.479,-0.528 0.464,-0.561 0.432,-0.588C0.401,-0.616 0.354,-0.629 0.294,-0.629C0.261,-0.629 0.232,-0.626 0.206,-0.619L0.206,-0.364ZM0.206,-0.048C0.244,-0.039 0.281,-0.035 0.318,-0.035C0.377,-0.035 0.422,-0.048 0.453,-0.074C0.484,-0.101 0.499,-0.134 0.499,-0.173C0.499,-0.199 0.492,-0.223 0.478,-0.247C0.464,-0.271 0.441,-0.29 0.41,-0.303C0.378,-0.317 0.339,-0.324 0.292,-0.324C0.272,-0.324 0.255,-0.323 0.241,-0.323C0.226,-0.322 0.215,-0.321 0.206,-0.319L0.206,-0.048Z" style="fill-rule:nonzero;"/>
            </g>
            <g transform="matrix(750,0,0,750,2582.36,1137.05)">
                <path d="M0.145,-0.694C0.159,-0.694 0.17,-0.69 0.18,-0.68C0.19,-0.67 0.194,-0.659 0.194,-0.645C0.194,-0.631 0.19,-0.62 0.18,-0.61C0.17,-0.6 0.159,-0.595 0.145,-0.595C0.131,-0.595 0.12,-0.6 0.11,-0.61C0.1,-0.62 0.095,-0.631 0.095,-0.645C0.095,-0.659 0.1,-0.67 0.11,-0.68C0.119,-0.69 0.131,-0.694 0.145,-0.694ZM0.186,-0.46L0.186,-0.101C0.186,-0.073 0.188,-0.054 0.192,-0.045C0.196,-0.036 0.202,-0.029 0.21,-0.024C0.218,-0.02 0.232,-0.018 0.253,-0.018L0.253,-0L0.036,-0L0.036,-0.018C0.058,-0.018 0.073,-0.02 0.08,-0.024C0.088,-0.028 0.094,-0.035 0.098,-0.045C0.102,-0.055 0.104,-0.073 0.104,-0.101L0.104,-0.273C0.104,-0.322 0.103,-0.353 0.1,-0.368C0.098,-0.378 0.094,-0.385 0.089,-0.389C0.084,-0.393 0.078,-0.396 0.069,-0.396C0.06,-0.396 0.049,-0.393 0.036,-0.388L0.029,-0.406L0.164,-0.46L0.186,-0.46Z" style="fill-rule:nonzero;"/>
            </g>
            <g transform="matrix(750,0,0,750,2790.74,1137.05)">
                <path d="M0.154,-0.37C0.197,-0.43 0.244,-0.46 0.294,-0.46C0.34,-0.46 0.38,-0.441 0.414,-0.402C0.448,-0.362 0.465,-0.309 0.465,-0.241C0.465,-0.161 0.439,-0.097 0.386,-0.049C0.341,-0.007 0.291,0.014 0.235,0.014C0.209,0.014 0.182,0.009 0.156,-0C0.129,-0.01 0.101,-0.024 0.073,-0.043L0.073,-0.506C0.073,-0.557 0.072,-0.588 0.07,-0.6C0.067,-0.612 0.063,-0.62 0.058,-0.624C0.053,-0.628 0.046,-0.63 0.039,-0.63C0.029,-0.63 0.018,-0.628 0.004,-0.623L-0.002,-0.64L0.132,-0.694L0.154,-0.694L0.154,-0.37ZM0.154,-0.339L0.154,-0.071C0.17,-0.055 0.188,-0.043 0.205,-0.034C0.223,-0.026 0.241,-0.022 0.26,-0.022C0.289,-0.022 0.317,-0.038 0.343,-0.071C0.368,-0.103 0.381,-0.151 0.381,-0.213C0.381,-0.27 0.368,-0.314 0.343,-0.345C0.317,-0.376 0.288,-0.391 0.255,-0.391C0.238,-0.391 0.221,-0.387 0.204,-0.378C0.191,-0.371 0.174,-0.358 0.154,-0.339Z" style="fill-rule:nonzero;"/>
            </g>
            <g transform="matrix(200,0,0,200,1241.98,1395.54)">
                <path d="M0.471,-0.381L0.471,-0.395C0.471,-0.405 0.473,-0.412 0.477,-0.417C0.481,-0.421 0.486,-0.423 0.492,-0.423C0.498,-0.423 0.503,-0.421 0.507,-0.417C0.511,-0.412 0.513,-0.405 0.513,-0.395L0.513,-0.302C0.512,-0.292 0.51,-0.285 0.507,-0.281C0.503,-0.277 0.498,-0.274 0.492,-0.274C0.486,-0.274 0.482,-0.276 0.478,-0.28C0.474,-0.284 0.472,-0.29 0.471,-0.299C0.469,-0.322 0.454,-0.344 0.426,-0.365C0.397,-0.386 0.359,-0.396 0.311,-0.396C0.25,-0.396 0.203,-0.377 0.172,-0.339C0.14,-0.301 0.125,-0.257 0.125,-0.208C0.125,-0.155 0.142,-0.111 0.177,-0.077C0.212,-0.042 0.257,-0.025 0.312,-0.025C0.344,-0.025 0.376,-0.031 0.409,-0.042C0.442,-0.054 0.472,-0.073 0.499,-0.099C0.506,-0.106 0.512,-0.109 0.517,-0.109C0.523,-0.109 0.527,-0.107 0.531,-0.103C0.535,-0.1 0.537,-0.095 0.537,-0.089C0.537,-0.075 0.52,-0.058 0.487,-0.036C0.434,-0.001 0.375,0.016 0.31,0.016C0.244,0.016 0.19,-0.005 0.147,-0.047C0.105,-0.089 0.083,-0.143 0.083,-0.208C0.083,-0.274 0.105,-0.328 0.149,-0.372C0.192,-0.416 0.247,-0.438 0.313,-0.438C0.376,-0.438 0.429,-0.419 0.471,-0.381Z" style="fill-rule:nonzero;"/>
            </g>
            <g transform="matrix(200,0,0,200,1362,1395.54)">
                <path d="M0.529,-0.21C0.529,-0.148 0.507,-0.095 0.462,-0.05C0.417,-0.006 0.363,0.016 0.3,0.016C0.236,0.016 0.182,-0.006 0.138,-0.051C0.093,-0.095 0.071,-0.148 0.071,-0.21C0.071,-0.273 0.093,-0.326 0.138,-0.371C0.182,-0.415 0.236,-0.438 0.3,-0.438C0.363,-0.438 0.417,-0.415 0.462,-0.371C0.507,-0.327 0.529,-0.273 0.529,-0.21ZM0.488,-0.21C0.488,-0.262 0.469,-0.306 0.433,-0.342C0.396,-0.378 0.352,-0.396 0.3,-0.396C0.248,-0.396 0.203,-0.378 0.167,-0.342C0.13,-0.305 0.112,-0.262 0.112,-0.21C0.112,-0.16 0.13,-0.116 0.167,-0.08C0.203,-0.043 0.248,-0.025 0.3,-0.025C0.352,-0.025 0.396,-0.043 0.433,-0.079C0.469,-0.116 0.488,-0.159 0.488,-0.21Z" style="fill-rule:nonzero;"/>
            </g>
            <g transform="matrix(200,0,0,200,1482.02,1395.54)">
                <path d="M0.167,-0.423L0.167,-0.361C0.196,-0.39 0.222,-0.41 0.245,-0.421C0.268,-0.432 0.294,-0.438 0.323,-0.438C0.354,-0.438 0.383,-0.431 0.409,-0.417C0.427,-0.408 0.443,-0.392 0.458,-0.369C0.473,-0.346 0.48,-0.323 0.48,-0.299L0.48,-0.041L0.515,-0.041C0.525,-0.041 0.532,-0.039 0.536,-0.035C0.54,-0.032 0.542,-0.027 0.542,-0.021C0.542,-0.015 0.54,-0.01 0.536,-0.006C0.532,-0.002 0.525,-0 0.515,-0L0.405,-0C0.395,-0 0.388,-0.002 0.384,-0.006C0.38,-0.01 0.377,-0.015 0.377,-0.021C0.377,-0.027 0.38,-0.032 0.384,-0.035C0.388,-0.039 0.395,-0.041 0.405,-0.041L0.439,-0.041L0.439,-0.292C0.439,-0.321 0.429,-0.346 0.408,-0.366C0.387,-0.386 0.358,-0.396 0.323,-0.396C0.296,-0.396 0.272,-0.391 0.252,-0.38C0.233,-0.369 0.204,-0.342 0.167,-0.298L0.167,-0.041L0.214,-0.041C0.224,-0.041 0.231,-0.039 0.235,-0.035C0.239,-0.032 0.241,-0.027 0.241,-0.021C0.241,-0.015 0.239,-0.01 0.235,-0.006C0.231,-0.002 0.224,-0 0.214,-0L0.08,-0C0.07,-0 0.063,-0.002 0.059,-0.006C0.055,-0.01 0.053,-0.015 0.053,-0.021C0.053,-0.027 0.055,-0.032 0.059,-0.035C0.063,-0.039 0.07,-0.041 0.08,-0.041L0.126,-0.041L0.126,-0.381L0.092,-0.381C0.082,-0.381 0.075,-0.383 0.071,-0.387C0.067,-0.391 0.064,-0.396 0.064,-0.402C0.064,-0.408 0.067,-0.413 0.071,-0.417C0.075,-0.421 0.082,-0.423 0.092,-0.423L0.167,-0.423Z" style="fill-rule:nonzero;"/>
            </g>
            <g transform="matrix(200,0,0,200,1602.04,1395.54)">
                <path d="M0.436,-0.396C0.436,-0.405 0.438,-0.412 0.441,-0.417C0.445,-0.421 0.45,-0.423 0.456,-0.423C0.462,-0.423 0.467,-0.421 0.471,-0.417C0.475,-0.412 0.477,-0.405 0.477,-0.395L0.477,-0.325C0.477,-0.315 0.475,-0.308 0.471,-0.304C0.467,-0.299 0.462,-0.297 0.456,-0.297C0.451,-0.297 0.446,-0.299 0.442,-0.303C0.438,-0.306 0.436,-0.312 0.436,-0.32C0.434,-0.34 0.424,-0.356 0.405,-0.369C0.379,-0.387 0.343,-0.396 0.299,-0.396C0.253,-0.396 0.218,-0.387 0.192,-0.368C0.173,-0.354 0.164,-0.339 0.164,-0.321C0.164,-0.302 0.175,-0.285 0.198,-0.272C0.213,-0.263 0.243,-0.256 0.287,-0.251C0.344,-0.245 0.383,-0.238 0.405,-0.23C0.437,-0.219 0.46,-0.203 0.476,-0.183C0.491,-0.163 0.499,-0.141 0.499,-0.118C0.499,-0.083 0.482,-0.052 0.449,-0.025C0.415,0.003 0.366,0.016 0.301,0.016C0.236,0.016 0.183,-0 0.142,-0.033C0.142,-0.022 0.141,-0.015 0.14,-0.012C0.139,-0.008 0.136,-0.006 0.133,-0.003C0.13,-0.001 0.126,-0 0.122,-0C0.116,-0 0.111,-0.002 0.107,-0.006C0.103,-0.011 0.101,-0.018 0.101,-0.027L0.101,-0.112C0.101,-0.122 0.103,-0.129 0.107,-0.133C0.11,-0.137 0.115,-0.139 0.122,-0.139C0.127,-0.139 0.132,-0.137 0.136,-0.133C0.141,-0.129 0.143,-0.124 0.143,-0.117C0.143,-0.102 0.146,-0.089 0.154,-0.079C0.165,-0.063 0.183,-0.051 0.208,-0.04C0.233,-0.03 0.264,-0.025 0.3,-0.025C0.353,-0.025 0.393,-0.035 0.419,-0.055C0.445,-0.075 0.458,-0.096 0.458,-0.118C0.458,-0.143 0.445,-0.163 0.418,-0.179C0.392,-0.194 0.353,-0.204 0.302,-0.209C0.251,-0.215 0.215,-0.222 0.192,-0.23C0.17,-0.238 0.153,-0.251 0.141,-0.268C0.128,-0.285 0.122,-0.303 0.122,-0.323C0.122,-0.358 0.139,-0.386 0.174,-0.406C0.208,-0.427 0.25,-0.438 0.297,-0.438C0.354,-0.438 0.4,-0.424 0.436,-0.396Z" style="fill-rule:nonzero;"/>
            </g>
            <g transform="matrix(200,0,0,200,1722.06,1395.54)">
                <path d="M0.529,-0.21C0.529,-0.148 0.507,-0.095 0.462,-0.05C0.417,-0.006 0.363,0.016 0.3,0.016C0.236,0.016 0.182,-0.006 0.138,-0.051C0.093,-0.095 0.071,-0.148 0.071,-0.21C0.071,-0.273 0.093,-0.326 0.138,-0.371C0.182,-0.415 0.236,-0.438 0.3,-0.438C0.363,-0.438 0.417,-0.415 0.462,-0.371C0.507,-0.327 0.529,-0.273 0.529,-0.21ZM0.488,-0.21C0.488,-0.262 0.469,-0.306 0.433,-0.342C0.396,-0.378 0.352,-0.396 0.3,-0.396C0.248,-0.396 0.203,-0.378 0.167,-0.342C0.13,-0.305 0.112,-0.262 0.112,-0.21C0.112,-0.16 0.13,-0.116 0.167,-0.08C0.203,-0.043 0.248,-0.025 0.3,-0.025C0.352,-0.025 0.396,-0.043 0.433,-0.079C0.469,-0.116 0.488,-0.159 0.488,-0.21Z" style="fill-rule:nonzero;"/>
            </g>
            <g transform="matrix(200,0,0,200,1842.08,1395.54)">
                <path d="M0.321,-0.613L0.321,-0.041L0.482,-0.041C0.492,-0.041 0.499,-0.039 0.503,-0.035C0.508,-0.032 0.51,-0.027 0.51,-0.021C0.51,-0.015 0.508,-0.01 0.503,-0.006C0.499,-0.002 0.492,-0 0.482,-0L0.119,-0C0.109,-0 0.102,-0.002 0.098,-0.006C0.093,-0.01 0.091,-0.015 0.091,-0.021C0.091,-0.027 0.093,-0.032 0.098,-0.035C0.102,-0.039 0.109,-0.041 0.119,-0.041L0.28,-0.041L0.28,-0.571L0.162,-0.571C0.152,-0.571 0.145,-0.573 0.14,-0.577C0.136,-0.581 0.134,-0.586 0.134,-0.592C0.134,-0.598 0.136,-0.603 0.14,-0.607C0.144,-0.611 0.152,-0.613 0.162,-0.613L0.321,-0.613Z" style="fill-rule:nonzero;"/>
            </g>
            <g transform="matrix(200,0,0,200,1962.1,1395.54)">
                <path d="M0.522,-0.202L0.104,-0.202C0.111,-0.149 0.133,-0.106 0.171,-0.073C0.208,-0.041 0.254,-0.025 0.309,-0.025C0.34,-0.025 0.372,-0.03 0.405,-0.04C0.439,-0.05 0.466,-0.063 0.487,-0.08C0.493,-0.085 0.499,-0.087 0.503,-0.087C0.509,-0.087 0.513,-0.085 0.517,-0.081C0.521,-0.077 0.523,-0.072 0.523,-0.067C0.523,-0.061 0.52,-0.056 0.515,-0.051C0.5,-0.035 0.472,-0.019 0.432,-0.005C0.392,0.009 0.351,0.016 0.309,0.016C0.239,0.016 0.18,-0.007 0.133,-0.053C0.086,-0.099 0.063,-0.155 0.063,-0.22C0.063,-0.28 0.085,-0.331 0.129,-0.374C0.173,-0.416 0.227,-0.438 0.292,-0.438C0.36,-0.438 0.415,-0.416 0.458,-0.372C0.501,-0.328 0.523,-0.271 0.522,-0.202ZM0.48,-0.243C0.472,-0.288 0.451,-0.325 0.416,-0.354C0.382,-0.382 0.34,-0.396 0.292,-0.396C0.245,-0.396 0.203,-0.382 0.169,-0.354C0.134,-0.326 0.113,-0.289 0.104,-0.243L0.48,-0.243Z" style="fill-rule:nonzero;"/>
            </g>
            <g transform="matrix(200,0,0,200,2148.79,1395.54)">
                <path d="M0.462,-0.338C0.508,-0.328 0.542,-0.313 0.565,-0.291C0.597,-0.261 0.612,-0.224 0.612,-0.181C0.612,-0.148 0.602,-0.117 0.581,-0.087C0.56,-0.057 0.532,-0.035 0.495,-0.021C0.459,-0.007 0.404,-0 0.329,-0L0.017,-0L0.017,-0.018L0.042,-0.018C0.069,-0.018 0.089,-0.027 0.101,-0.044C0.109,-0.056 0.112,-0.08 0.112,-0.117L0.112,-0.545C0.112,-0.586 0.108,-0.612 0.098,-0.623C0.085,-0.637 0.067,-0.644 0.042,-0.644L0.017,-0.644L0.017,-0.662L0.303,-0.662C0.356,-0.662 0.399,-0.658 0.431,-0.65C0.48,-0.639 0.517,-0.618 0.543,-0.588C0.569,-0.558 0.582,-0.524 0.582,-0.485C0.582,-0.452 0.571,-0.422 0.551,-0.396C0.531,-0.37 0.501,-0.351 0.462,-0.338ZM0.206,-0.364C0.218,-0.362 0.232,-0.36 0.247,-0.359C0.263,-0.358 0.28,-0.357 0.298,-0.357C0.346,-0.357 0.382,-0.363 0.406,-0.373C0.429,-0.383 0.448,-0.399 0.46,-0.42C0.473,-0.441 0.479,-0.464 0.479,-0.489C0.479,-0.528 0.464,-0.561 0.432,-0.588C0.401,-0.616 0.354,-0.629 0.294,-0.629C0.261,-0.629 0.232,-0.626 0.206,-0.619L0.206,-0.364ZM0.206,-0.048C0.244,-0.039 0.281,-0.035 0.318,-0.035C0.377,-0.035 0.422,-0.048 0.453,-0.074C0.484,-0.101 0.499,-0.134 0.499,-0.173C0.499,-0.199 0.492,-0.223 0.478,-0.247C0.464,-0.271 0.441,-0.29 0.41,-0.303C0.378,-0.317 0.339,-0.324 0.292,-0.324C0.272,-0.324 0.255,-0.323 0.241,-0.323C0.226,-0.322 0.215,-0.321 0.206,-0.319L0.206,-0.048Z" style="fill-rule:nonzero;"/>
            </g>
            <g transform="matrix(200,0,0,200,2282.18,1395.54)">
                <path d="M0.145,-0.694C0.159,-0.694 0.17,-0.69 0.18,-0.68C0.19,-0.67 0.194,-0.659 0.194,-0.645C0.194,-0.631 0.19,-0.62 0.18,-0.61C0.17,-0.6 0.159,-0.595 0.145,-0.595C0.131,-0.595 0.12,-0.6 0.11,-0.61C0.1,-0.62 0.095,-0.631 0.095,-0.645C0.095,-0.659 0.1,-0.67 0.11,-0.68C0.119,-0.69 0.131,-0.694 0.145,-0.694ZM0.186,-0.46L0.186,-0.101C0.186,-0.073 0.188,-0.054 0.192,-0.045C0.196,-0.036 0.202,-0.029 0.21,-0.024C0.218,-0.02 0.232,-0.018 0.253,-0.018L0.253,-0L0.036,-0L0.036,-0.018C0.058,-0.018 0.073,-0.02 0.08,-0.024C0.088,-0.028 0.094,-0.035 0.098,-0.045C0.102,-0.055 0.104,-0.073 0.104,-0.101L0.104,-0.273C0.104,-0.322 0.103,-0.353 0.1,-0.368C0.098,-0.378 0.094,-0.385 0.089,-0.389C0.084,-0.393 0.078,-0.396 0.069,-0.396C0.06,-0.396 0.049,-0.393 0.036,-0.388L0.029,-0.406L0.164,-0.46L0.186,-0.46Z" style="fill-rule:nonzero;"/>
            </g>
            <g transform="matrix(200,0,0,200,2337.75,1395.54)">
                <path d="M0.154,-0.37C0.197,-0.43 0.244,-0.46 0.294,-0.46C0.34,-0.46 0.38,-0.441 0.414,-0.402C0.448,-0.362 0.465,-0.309 0.465,-0.241C0.465,-0.161 0.439,-0.097 0.386,-0.049C0.341,-0.007 0.291,0.014 0.235,0.014C0.209,0.014 0.182,0.009 0.156,-0C0.129,-0.01 0.101,-0.024 0.073,-0.043L0.073,-0.506C0.073,-0.557 0.072,-0.588 0.07,-0.6C0.067,-0.612 0.063,-0.62 0.058,-0.624C0.053,-0.628 0.046,-0.63 0.039,-0.63C0.029,-0.63 0.018,-0.628 0.004,-0.623L-0.002,-0.64L0.132,-0.694L0.154,-0.694L0.154,-0.37ZM0.154,-0.339L0.154,-0.071C0.17,-0.055 0.188,-0.043 0.205,-0.034C0.223,-0.026 0.241,-0.022 0.26,-0.022C0.289,-0.022 0.317,-0.038 0.343,-0.071C0.368,-0.103 0.381,-0.151 0.381,-0.213C0.381,-0.27 0.368,-0.314 0.343,-0.345C0.317,-0.376 0.288,-0.391 0.255,-0.391C0.238,-0.391 0.221,-0.387 0.204,-0.378C0.191,-0.371 0.174,-0.358 0.154,-0.339Z" style="fill-rule:nonzero;"/>
            </g>
            <g transform="matrix(200,0,0,200,2437.75,1395.54)">
                <path d="M0.185,-0.694L0.185,-0.101C0.185,-0.073 0.187,-0.055 0.191,-0.045C0.195,-0.036 0.201,-0.029 0.21,-0.025C0.218,-0.02 0.234,-0.018 0.257,-0.018L0.257,-0L0.038,-0L0.038,-0.018C0.059,-0.018 0.073,-0.02 0.08,-0.024C0.088,-0.028 0.093,-0.035 0.098,-0.045C0.102,-0.055 0.104,-0.073 0.104,-0.101L0.104,-0.507C0.104,-0.558 0.103,-0.589 0.101,-0.6C0.098,-0.612 0.095,-0.62 0.09,-0.624C0.085,-0.628 0.078,-0.63 0.07,-0.63C0.062,-0.63 0.051,-0.628 0.038,-0.623L0.03,-0.64L0.163,-0.694L0.185,-0.694Z" style="fill-rule:nonzero;"/>
            </g>
            <g transform="matrix(200,0,0,200,2493.32,1395.54)">
                <path d="M0.145,-0.694C0.159,-0.694 0.17,-0.69 0.18,-0.68C0.19,-0.67 0.194,-0.659 0.194,-0.645C0.194,-0.631 0.19,-0.62 0.18,-0.61C0.17,-0.6 0.159,-0.595 0.145,-0.595C0.131,-0.595 0.12,-0.6 0.11,-0.61C0.1,-0.62 0.095,-0.631 0.095,-0.645C0.095,-0.659 0.1,-0.67 0.11,-0.68C0.119,-0.69 0.131,-0.694 0.145,-0.694ZM0.186,-0.46L0.186,-0.101C0.186,-0.073 0.188,-0.054 0.192,-0.045C0.196,-0.036 0.202,-0.029 0.21,-0.024C0.218,-0.02 0.232,-0.018 0.253,-0.018L0.253,-0L0.036,-0L0.036,-0.018C0.058,-0.018 0.073,-0.02 0.08,-0.024C0.088,-0.028 0.094,-0.035 0.098,-0.045C0.102,-0.055 0.104,-0.073 0.104,-0.101L0.104,-0.273C0.104,-0.322 0.103,-0.353 0.1,-0.368C0.098,-0.378 0.094,-0.385 0.089,-0.389C0.084,-0.393 0.078,-0.396 0.069,-0.396C0.06,-0.396 0.049,-0.393 0.036,-0.388L0.029,-0.406L0.164,-0.46L0.186,-0.46Z" style="fill-rule:nonzero;"/>
            </g>
            <g transform="matrix(200,0,0,200,2548.88,1395.54)">
                <path d="M0.25,-0.46C0.318,-0.46 0.372,-0.435 0.413,-0.383C0.448,-0.339 0.465,-0.289 0.465,-0.232C0.465,-0.192 0.456,-0.151 0.437,-0.11C0.417,-0.069 0.391,-0.038 0.357,-0.018C0.323,0.003 0.286,0.014 0.245,0.014C0.177,0.014 0.124,-0.013 0.084,-0.067C0.05,-0.112 0.034,-0.163 0.034,-0.219C0.034,-0.26 0.044,-0.301 0.064,-0.342C0.085,-0.382 0.111,-0.412 0.145,-0.431C0.178,-0.451 0.213,-0.46 0.25,-0.46ZM0.235,-0.429C0.218,-0.429 0.2,-0.424 0.183,-0.413C0.165,-0.403 0.151,-0.385 0.141,-0.359C0.13,-0.334 0.125,-0.301 0.125,-0.26C0.125,-0.195 0.137,-0.139 0.163,-0.092C0.189,-0.045 0.223,-0.021 0.266,-0.021C0.297,-0.021 0.323,-0.034 0.344,-0.06C0.364,-0.086 0.375,-0.131 0.375,-0.194C0.375,-0.274 0.357,-0.336 0.323,-0.382C0.3,-0.413 0.271,-0.429 0.235,-0.429Z" style="fill-rule:nonzero;"/>
            </g>
            <g transform="matrix(200,0,0,200,2648.88,1395.54)">
                <path d="M0.151,-0.163C0.124,-0.176 0.103,-0.195 0.088,-0.219C0.073,-0.243 0.066,-0.269 0.066,-0.298C0.066,-0.343 0.083,-0.381 0.116,-0.413C0.149,-0.444 0.192,-0.46 0.244,-0.46C0.287,-0.46 0.324,-0.45 0.355,-0.429L0.45,-0.429C0.464,-0.429 0.472,-0.429 0.474,-0.428C0.476,-0.427 0.478,-0.426 0.479,-0.424C0.481,-0.421 0.482,-0.416 0.482,-0.408C0.482,-0.4 0.481,-0.394 0.479,-0.391C0.479,-0.389 0.477,-0.388 0.474,-0.387C0.472,-0.386 0.464,-0.385 0.45,-0.385L0.392,-0.385C0.41,-0.362 0.419,-0.332 0.419,-0.295C0.419,-0.254 0.403,-0.218 0.371,-0.188C0.339,-0.159 0.296,-0.144 0.243,-0.144C0.221,-0.144 0.198,-0.147 0.175,-0.154C0.16,-0.141 0.151,-0.131 0.146,-0.121C0.141,-0.112 0.138,-0.104 0.138,-0.098C0.138,-0.092 0.141,-0.087 0.146,-0.082C0.152,-0.076 0.162,-0.073 0.178,-0.07C0.187,-0.069 0.21,-0.068 0.246,-0.067C0.313,-0.065 0.357,-0.063 0.376,-0.06C0.407,-0.056 0.431,-0.045 0.449,-0.026C0.467,-0.008 0.476,0.014 0.476,0.041C0.476,0.078 0.459,0.112 0.424,0.145C0.374,0.192 0.307,0.216 0.226,0.216C0.163,0.216 0.11,0.202 0.066,0.173C0.042,0.157 0.03,0.14 0.03,0.123C0.03,0.115 0.032,0.107 0.035,0.099C0.041,0.087 0.052,0.07 0.069,0.049C0.072,0.046 0.088,0.028 0.119,-0.004C0.102,-0.014 0.09,-0.023 0.083,-0.031C0.076,-0.039 0.073,-0.048 0.073,-0.058C0.073,-0.069 0.077,-0.083 0.087,-0.098C0.096,-0.113 0.117,-0.135 0.151,-0.163ZM0.236,-0.437C0.212,-0.437 0.192,-0.427 0.175,-0.408C0.159,-0.389 0.151,-0.36 0.151,-0.32C0.151,-0.268 0.162,-0.229 0.184,-0.2C0.201,-0.179 0.222,-0.168 0.249,-0.168C0.273,-0.168 0.294,-0.177 0.31,-0.196C0.326,-0.214 0.333,-0.243 0.333,-0.283C0.333,-0.335 0.322,-0.375 0.3,-0.405C0.283,-0.426 0.262,-0.437 0.236,-0.437ZM0.146,-0C0.131,0.017 0.119,0.032 0.111,0.046C0.104,0.061 0.1,0.074 0.1,0.086C0.1,0.102 0.109,0.115 0.128,0.127C0.16,0.147 0.208,0.157 0.269,0.157C0.328,0.157 0.371,0.147 0.399,0.126C0.427,0.106 0.44,0.083 0.44,0.06C0.44,0.043 0.432,0.031 0.416,0.024C0.399,0.017 0.365,0.013 0.315,0.011C0.242,0.009 0.185,0.006 0.146,-0Z" style="fill-rule:nonzero;"/>
            </g>
            <g transform="matrix(200,0,0,200,2748.88,1395.54)">
                <path d="M0.162,-0.46L0.162,-0.36C0.2,-0.427 0.238,-0.46 0.277,-0.46C0.295,-0.46 0.31,-0.455 0.322,-0.444C0.333,-0.433 0.339,-0.421 0.339,-0.406C0.339,-0.394 0.335,-0.383 0.327,-0.374C0.318,-0.365 0.308,-0.361 0.296,-0.361C0.285,-0.361 0.272,-0.366 0.258,-0.378C0.244,-0.389 0.233,-0.395 0.227,-0.395C0.221,-0.395 0.214,-0.391 0.208,-0.385C0.193,-0.371 0.178,-0.349 0.162,-0.319L0.162,-0.104C0.162,-0.08 0.165,-0.061 0.171,-0.048C0.176,-0.04 0.183,-0.032 0.194,-0.026C0.205,-0.021 0.22,-0.018 0.24,-0.018L0.24,-0L0.011,-0L0.011,-0.018C0.034,-0.018 0.051,-0.021 0.062,-0.028C0.07,-0.034 0.076,-0.042 0.079,-0.053C0.081,-0.059 0.082,-0.075 0.082,-0.101L0.082,-0.274C0.082,-0.326 0.08,-0.357 0.078,-0.367C0.076,-0.377 0.072,-0.384 0.067,-0.389C0.061,-0.393 0.054,-0.396 0.045,-0.396C0.035,-0.396 0.024,-0.393 0.011,-0.388L0.006,-0.406L0.142,-0.46L0.162,-0.46Z" style="fill-rule:nonzero;"/>
            </g>
            <g transform="matrix(200,0,0,200,2815.48,1395.54)">
                <path d="M0.285,-0.064C0.239,-0.029 0.21,-0.008 0.198,-0.003C0.181,0.005 0.162,0.009 0.142,0.009C0.111,0.009 0.086,-0.001 0.066,-0.022C0.046,-0.044 0.036,-0.071 0.036,-0.106C0.036,-0.128 0.041,-0.147 0.05,-0.163C0.064,-0.185 0.087,-0.206 0.12,-0.225C0.153,-0.245 0.208,-0.268 0.285,-0.296L0.285,-0.314C0.285,-0.359 0.278,-0.389 0.263,-0.406C0.249,-0.422 0.229,-0.431 0.202,-0.431C0.181,-0.431 0.165,-0.425 0.153,-0.414C0.14,-0.403 0.134,-0.39 0.134,-0.376L0.135,-0.348C0.135,-0.333 0.131,-0.321 0.124,-0.313C0.116,-0.305 0.106,-0.301 0.094,-0.301C0.082,-0.301 0.072,-0.305 0.064,-0.313C0.057,-0.322 0.053,-0.333 0.053,-0.348C0.053,-0.376 0.067,-0.402 0.096,-0.425C0.124,-0.449 0.165,-0.46 0.216,-0.46C0.256,-0.46 0.289,-0.454 0.314,-0.44C0.333,-0.43 0.347,-0.415 0.356,-0.393C0.362,-0.379 0.365,-0.35 0.365,-0.307L0.365,-0.155C0.365,-0.113 0.366,-0.087 0.368,-0.077C0.369,-0.067 0.372,-0.061 0.376,-0.058C0.379,-0.054 0.384,-0.053 0.389,-0.053C0.394,-0.053 0.398,-0.054 0.402,-0.056C0.409,-0.06 0.422,-0.072 0.442,-0.092L0.442,-0.064C0.405,-0.016 0.371,0.009 0.337,0.009C0.321,0.009 0.309,0.003 0.299,-0.008C0.29,-0.019 0.285,-0.038 0.285,-0.064ZM0.285,-0.096L0.285,-0.267C0.236,-0.247 0.204,-0.233 0.189,-0.225C0.164,-0.211 0.145,-0.196 0.134,-0.18C0.123,-0.165 0.118,-0.147 0.118,-0.129C0.118,-0.105 0.125,-0.086 0.139,-0.071C0.153,-0.055 0.169,-0.047 0.187,-0.047C0.212,-0.047 0.244,-0.064 0.285,-0.096Z" style="fill-rule:nonzero;"/>
            </g>
            <g transform="matrix(200,0,0,200,2904.25,1395.54)">
                <path d="M-0.001,-0.403L0.137,-0.458L0.155,-0.458L0.155,-0.354C0.178,-0.393 0.202,-0.421 0.225,-0.437C0.248,-0.453 0.273,-0.46 0.298,-0.46C0.343,-0.46 0.381,-0.443 0.411,-0.408C0.447,-0.365 0.466,-0.309 0.466,-0.24C0.466,-0.163 0.444,-0.099 0.399,-0.048C0.363,-0.007 0.317,0.014 0.262,0.014C0.238,0.014 0.217,0.01 0.199,0.003C0.186,-0.001 0.172,-0.011 0.155,-0.026L0.155,0.11C0.155,0.141 0.157,0.16 0.161,0.169C0.165,0.177 0.171,0.184 0.18,0.188C0.19,0.193 0.207,0.196 0.231,0.196L0.231,0.214L-0.003,0.214L-0.003,0.196L0.009,0.196C0.027,0.196 0.042,0.193 0.055,0.186C0.061,0.182 0.066,0.176 0.069,0.168C0.073,0.16 0.074,0.14 0.074,0.107L0.074,-0.315C0.074,-0.344 0.073,-0.363 0.07,-0.371C0.068,-0.378 0.064,-0.384 0.058,-0.388C0.052,-0.392 0.044,-0.394 0.035,-0.394C0.027,-0.394 0.017,-0.392 0.005,-0.387L-0.001,-0.403ZM0.155,-0.325L0.155,-0.158C0.155,-0.122 0.157,-0.098 0.16,-0.087C0.164,-0.068 0.175,-0.051 0.193,-0.037C0.211,-0.023 0.233,-0.016 0.26,-0.016C0.293,-0.016 0.319,-0.028 0.339,-0.054C0.366,-0.087 0.379,-0.134 0.379,-0.194C0.379,-0.262 0.364,-0.315 0.334,-0.352C0.313,-0.377 0.288,-0.39 0.26,-0.39C0.244,-0.39 0.229,-0.386 0.213,-0.378C0.202,-0.372 0.182,-0.354 0.155,-0.325Z" style="fill-rule:nonzero;"/>
            </g>
            <g transform="matrix(200,0,0,200,3004.25,1395.54)">
                <path d="M0.163,-0.694L0.163,-0.367C0.199,-0.407 0.227,-0.432 0.249,-0.444C0.27,-0.455 0.291,-0.46 0.312,-0.46C0.337,-0.46 0.359,-0.453 0.377,-0.439C0.396,-0.425 0.409,-0.403 0.418,-0.374C0.424,-0.353 0.427,-0.315 0.427,-0.259L0.427,-0.101C0.427,-0.073 0.43,-0.053 0.434,-0.043C0.437,-0.035 0.443,-0.029 0.451,-0.024C0.458,-0.02 0.473,-0.018 0.494,-0.018L0.494,-0L0.274,-0L0.274,-0.018L0.284,-0.018C0.305,-0.018 0.319,-0.021 0.328,-0.027C0.336,-0.033 0.341,-0.043 0.345,-0.055C0.346,-0.06 0.346,-0.076 0.346,-0.101L0.346,-0.259C0.346,-0.308 0.344,-0.34 0.339,-0.355C0.334,-0.371 0.326,-0.382 0.314,-0.39C0.303,-0.398 0.29,-0.401 0.274,-0.401C0.258,-0.401 0.242,-0.397 0.225,-0.389C0.207,-0.38 0.187,-0.363 0.163,-0.337L0.163,-0.101C0.163,-0.07 0.164,-0.051 0.168,-0.044C0.171,-0.036 0.177,-0.03 0.187,-0.025C0.196,-0.02 0.212,-0.018 0.235,-0.018L0.235,-0L0.013,-0L0.013,-0.018C0.033,-0.018 0.049,-0.021 0.06,-0.027C0.067,-0.03 0.072,-0.036 0.076,-0.045C0.08,-0.055 0.082,-0.073 0.082,-0.101L0.082,-0.506C0.082,-0.557 0.08,-0.588 0.078,-0.6C0.075,-0.612 0.072,-0.62 0.067,-0.624C0.062,-0.628 0.055,-0.63 0.046,-0.63C0.04,-0.63 0.028,-0.628 0.013,-0.623L0.006,-0.64L0.14,-0.694L0.163,-0.694Z" style="fill-rule:nonzero;"/>
            </g>
            <g transform="matrix(200,0,0,200,3104.25,1395.54)">
                <path d="M0.006,-0.447L0.214,-0.447L0.214,-0.429L0.204,-0.429C0.189,-0.429 0.178,-0.426 0.171,-0.42C0.164,-0.413 0.16,-0.405 0.16,-0.396C0.16,-0.383 0.166,-0.366 0.176,-0.343L0.285,-0.118L0.385,-0.365C0.391,-0.378 0.394,-0.391 0.394,-0.404C0.394,-0.41 0.392,-0.415 0.39,-0.417C0.388,-0.421 0.383,-0.424 0.378,-0.426C0.372,-0.428 0.363,-0.429 0.349,-0.429L0.349,-0.447L0.494,-0.447L0.494,-0.429C0.482,-0.428 0.473,-0.425 0.466,-0.421C0.46,-0.417 0.453,-0.41 0.445,-0.399C0.442,-0.395 0.436,-0.382 0.428,-0.362L0.246,0.084C0.229,0.128 0.205,0.16 0.177,0.183C0.149,0.205 0.121,0.216 0.095,0.216C0.076,0.216 0.06,0.21 0.047,0.199C0.035,0.188 0.029,0.175 0.029,0.161C0.029,0.147 0.033,0.136 0.042,0.128C0.051,0.12 0.063,0.116 0.079,0.116C0.09,0.116 0.104,0.119 0.123,0.126C0.136,0.131 0.144,0.134 0.147,0.134C0.157,0.134 0.168,0.129 0.179,0.119C0.191,0.109 0.203,0.089 0.214,0.06L0.246,-0.018L0.085,-0.355C0.081,-0.365 0.073,-0.378 0.062,-0.393C0.054,-0.404 0.047,-0.412 0.042,-0.416C0.035,-0.421 0.022,-0.425 0.006,-0.429L0.006,-0.447Z" style="fill-rule:nonzero;"/>
            </g>
        </g>
    </g>
</svg>
